<?xml version="1.0" standalone="no"?><!DOCTYPE svg PUBLIC "-//W3C//DTD SVG 1.1//EN" "http://www.w3.org/Graphics/SVG/1.1/DTD/svg11.dtd"><svg t="1718256178041" class="icon" viewBox="0 0 1024 1024" version="1.1" xmlns="http://www.w3.org/2000/svg" p-id="2031" xmlns:xlink="http://www.w3.org/1999/xlink" width="128" height="128"><path d="M195.047619 609.52381v219.428571h219.428571v73.142857H195.047619a73.142857 73.142857 0 0 1-73.142857-73.142857v-219.428571h73.142857z m707.047619 0v219.428571a73.142857 73.142857 0 0 1-73.142857 73.142857h-219.428571v-73.142857h219.428571v-219.428571h73.142857zM499.809524 287.695238a195.047619 195.047619 0 0 1 145.310476 325.168762l73.508571 73.557333-51.712 51.687619-80.554666-80.530285A195.047619 195.047619 0 1 1 499.809524 287.695238z m0 73.142857a121.904762 121.904762 0 1 0 0 243.809524 121.904762 121.904762 0 0 0 0-243.809524zM828.952381 121.904762a73.142857 73.142857 0 0 1 73.142857 73.142857v219.428571h-73.142857V195.047619h-219.428571V121.904762h219.428571zM414.47619 121.904762v73.142857H195.047619v219.428571H121.904762V195.047619a73.142857 73.142857 0 0 1 73.142857-73.142857h219.428571z" p-id="2032"></path></svg>
