<?xml version="1.0" standalone="no"?><!DOCTYPE svg PUBLIC "-//W3C//DTD SVG 1.1//EN" "http://www.w3.org/Graphics/SVG/1.1/DTD/svg11.dtd">
<svg
	t="1716793445789"
	class="icon"
	viewBox="0 0 1024 1024"
	version="1.1"
	xmlns="http://www.w3.org/2000/svg"
	p-id="1488"
	xmlns:xlink="http://www.w3.org/1999/xlink"
	width="128"
	height="128"
>
	<path
		d="M226.909091 186.181818c22.481455 0 40.727273 18.245818 40.727273 40.727273v570.181818a40.727273 40.727273 0 1 1-81.454546 0V226.909091C186.181818 204.427636 204.427636 186.181818 226.909091 186.181818zM791.272727 552.727273a46.545455 46.545455 0 0 1 46.545455 46.545454v69.818182a46.545455 46.545455 0 0 1-46.545455 46.545455H395.636364a46.545455 46.545455 0 0 1-46.545455-46.545455v-69.818182a46.545455 46.545455 0 0 1 46.545455-46.545454H791.272727z m-122.181818-244.363637a46.545455 46.545455 0 0 1 46.545455 46.545455v69.818182a46.545455 46.545455 0 0 1-46.545455 46.545454H395.636364a46.545455 46.545455 0 0 1-46.545455-46.545454v-69.818182a46.545455 46.545455 0 0 1 46.545455-46.545455h273.454545z"
		p-id="1489"
	></path>
</svg>
