<?xml version="1.0" standalone="no"?><!DOCTYPE svg PUBLIC "-//W3C//DTD SVG 1.1//EN" "http://www.w3.org/Graphics/SVG/1.1/DTD/svg11.dtd"><svg t="1720424518483" class="icon" viewBox="0 0 1024 1024" version="1.1" xmlns="http://www.w3.org/2000/svg" p-id="1014" xmlns:xlink="http://www.w3.org/1999/xlink" width="128" height="128"><path d="M512 140m-138 0a138 138 0 1 0 276 0 138 138 0 1 0-276 0Z" fill="#A8B7BD" p-id="1015"></path><path d="M596.5 223.1c-59.6 47.5-146.4 37.7-193.9-21.8-15.6-19.6-25.1-42.2-28.6-65.3-0.9 31.5 8.9 63.5 30 90 47.5 59.6 134.3 69.3 193.9 21.8 40-31.9 57.5-81.4 50.4-128.6-1 39.2-18.7 77.6-51.8 103.9z" opacity=".52" p-id="1016"></path><path d="M512 886m-138 0a138 138 0 1 0 276 0 138 138 0 1 0-276 0Z" fill="#A8B7BD" p-id="1017"></path><path d="M427.5 802.9c59.6-47.5 146.4-37.7 193.9 21.8 15.6 19.6 25.1 42.2 28.6 65.3 0.9-31.5-8.9-63.5-30-90-47.5-59.6-134.3-69.3-193.9-21.8-40 31.9-57.5 81.4-50.4 128.6 1-39.2 18.7-77.6 51.8-103.9z" opacity=".52" p-id="1018"></path><path d="M512 767.3c72.7 0 132.1 56.3 137.4 127.6 0.3-3.4 0.5-6.9 0.5-10.4 0-76.2-61.8-138-138-138s-138 61.8-138 138c0 3.5 0.3 6.9 0.5 10.4 5.5-71.3 64.9-127.6 137.6-127.6z" fill="#63777C" opacity=".59" p-id="1019"></path><path d="M512 258.7c-72.7 0-132.1-56.3-137.4-127.6-0.3 3.4-0.5 6.9-0.5 10.4 0 76.2 61.8 138 138 138s138-61.8 138-138c0-3.5-0.3-6.9-0.5-10.4-5.5 71.3-64.9 127.6-137.6 127.6z" fill="#63777C" opacity=".59" p-id="1020"></path><path d="M512 929c-40.2 0-73.1-32.9-73.1-73.1v-689c0-40.2 32.9-73.1 73.1-73.1 40.2 0 73.1 32.9 73.1 73.1v689c0 40.2-32.9 73.1-73.1 73.1z" fill="#D3DCE0" p-id="1021"></path></svg>
