<?xml version="1.0" standalone="no"?><!DOCTYPE svg PUBLIC "-//W3C//DTD SVG 1.1//EN" "http://www.w3.org/Graphics/SVG/1.1/DTD/svg11.dtd">
<svg
	t="1718694214022"
	class="icon"
	viewBox="0 0 1024 1024"
	version="1.1"
	xmlns="http://www.w3.org/2000/svg"
	p-id="2572"
	xmlns:xlink="http://www.w3.org/1999/xlink"
	width="128"
	height="128"
>
	<path
		d="M375.25554688 490.60460937H242.23203125c-61.39546875 0-111.628125-50.23265625-111.628125-111.628125V245.95296875c0-61.39546875 50.23265625-111.628125 111.628125-111.628125h133.02351562c61.39546875 0 111.628125 50.23265625 111.628125 111.628125v133.02351562c0 61.39546875-49.30242188 111.628125-111.628125 111.628125zM242.23203125 208.74359375c-20.46515625 0-37.209375 16.74421875-37.209375 37.209375v133.02351562c0 20.46515625 16.74421875 37.209375 37.209375 37.209375h133.02351562c20.46515625 0 37.209375-16.74421875 37.209375-37.209375V245.95296875c0-20.46515625-16.74421875-37.209375-37.209375-37.209375H242.23203125zM781.76796875 490.60460937H648.74445312c-61.39546875 0-111.628125-50.23265625-111.628125-111.628125V245.95296875c0-61.39546875 50.23265625-111.628125 111.628125-111.628125H781.76796875c61.39546875 0 111.628125 50.23265625 111.628125 111.628125v133.02351562c0 61.39546875-50.23265625 111.628125-111.628125 111.628125zM648.74445312 208.74359375c-20.46515625 0-37.209375 16.74421875-37.209375 37.209375v133.02351562c0 20.46515625 16.74421875 37.209375 37.209375 37.209375H781.76796875c20.46515625 0 37.209375-16.74421875 37.209375-37.209375V245.95296875c0-20.46515625-16.74421875-37.209375-37.209375-37.209375H648.74445312zM781.76796875 889.67515625H648.74445312c-61.39546875 0-111.628125-50.23265625-111.628125-111.628125V645.02351562c0-61.39546875 50.23265625-111.628125 111.628125-111.628125H781.76796875c61.39546875 0 111.628125 50.23265625 111.628125 111.628125v133.02351563c0 61.39546875-50.23265625 111.628125-111.628125 111.628125zM648.74445312 607.81414062c-20.46515625 0-37.209375 16.74421875-37.209375 37.209375v133.02351563c0 20.46515625 16.74421875 37.209375 37.209375 37.209375H781.76796875c20.46515625 0 37.209375-16.74421875 37.209375-37.209375V645.02351562c0-20.46515625-16.74421875-37.209375-37.209375-37.209375H648.74445312zM375.25554688 889.67515625H242.23203125c-61.39546875 0-111.628125-50.23265625-111.628125-111.628125V645.02351562c0-61.39546875 50.23265625-111.628125 111.628125-111.628125h133.02351562c61.39546875 0 111.628125 50.23265625 111.628125 111.628125v133.02351563c0 61.39546875-49.30242188 111.628125-111.628125 111.628125zM242.23203125 607.81414062c-20.46515625 0-37.209375 16.74421875-37.209375 37.209375v133.02351563c0 20.46515625 16.74421875 37.209375 37.209375 37.209375h133.02351562c20.46515625 0 37.209375-16.74421875 37.209375-37.209375V645.02351562c0-20.46515625-16.74421875-37.209375-37.209375-37.209375H242.23203125z"
		p-id="2573"
	></path>
</svg>
