<?xml version="1.0" standalone="no"?><!DOCTYPE svg PUBLIC "-//W3C//DTD SVG 1.1//EN" "http://www.w3.org/Graphics/SVG/1.1/DTD/svg11.dtd">
<svg
	t="1716884731537"
	class="icon"
	viewBox="0 0 1024 1024"
	version="1.1"
	xmlns="http://www.w3.org/2000/svg"
	p-id="3969"
	xmlns:xlink="http://www.w3.org/1999/xlink"
	width="128"
	height="128"
>
	<path
		d="M498.86914062 148.1328125c-29.06191406 0-52.87148438 23.76210938-53.78906249 53.6625l-7.54628907 249.04335938-39.06035156-192.628125c-5.93261719-29.26757813-33.38085938-48.41015625-61.99980469-43.22109375l-3.25898437 0.58535156c-28.603125 5.20488281-48.04628906 32.84296875-43.90136719 62.45859375l33.06445313 235.81757812-51.11542969-129.94804687c-10.86855469-27.63808594-41.03789063-41.44921875-68.26464844-31.2609375l-3.63867188 1.36054687c-27.17929688 10.18828125-41.67070312 40.67402344-32.81132812 69.02402344l100.19003906 320.45625c15.26660156 37.88964844 21.95859375 65.44863281 77.61445313 103.67050781 55.65585937 38.221875 220.21875 45.92636719 297.32695312-24.75878906 28.08105469-25.75546875 68.10644531-74.24472656 89.65371094-106.83457031l117.38671875-161.88925781c18.06679687-24.88535156 14.12753906-59.97480469-8.9859375-79.95585938a55.14960938 55.14960938 0 0 0-77.63027344 5.17324219l-93.15 104.2875 42.74648438-305.1421875c4.14492187-29.615625-15.28242187-57.26953125-43.90136719-62.45859375l-3.25898438-0.58535157c-28.61894531-5.20488281-56.0671875 13.93769531-61.99980468 43.22109375l-39.02871094 192.628125-7.57792969-249.04335937C555.03125 171.89492188 531.22167969 148.1328125 502.15976563 148.1328125h-3.30644532z"
		p-id="3970"
	></path>
</svg>
