<?xml version="1.0" standalone="no"?><!DOCTYPE svg PUBLIC "-//W3C//DTD SVG 1.1//EN" "http://www.w3.org/Graphics/SVG/1.1/DTD/svg11.dtd"><svg t="1717229831019" class="icon" viewBox="0 0 1024 1024" version="1.1" xmlns="http://www.w3.org/2000/svg" p-id="3034" xmlns:xlink="http://www.w3.org/1999/xlink" width="128" height="128"><path d="M786.21875001 877.625H237.78124999c-50.48261719 0-91.40625001-40.92451172-91.40624999-91.40625001V237.78124999c0-50.48261719 40.92363281-91.40625001 91.40625001-91.40624999h217.96874999v56.25H237.78124999c-19.41591797 0-35.15625001 15.74033203-35.15624999 35.15625001v548.4375c0 19.41591797 15.74033203 35.15625001 35.15625001 35.15624999h548.4375c19.41591797 0 35.15625001-15.74033203 35.15624999-35.15624999V568.25h56.25v217.96875001c0 50.48261719-40.92363281 91.40625001-91.40624999 91.40624999zM636.29931641 427.484375l64.28496093 64.28496094c5.07392578 5.07392578 7.79150391 11.59453125 8.2116211 18.23378906 0.02900391 0.41220703 0.04833984 0.82617188 0.05976562 1.24277344 0.00439453 0.24257812 0.02021484 0.48427734 0.01845703 0.72773437l0.00087891 0.0272461c0 15.53291018-12.59208983 28.125-28.125 28.125H512c-15.53291018 0-28.125-12.59208983-28.125-28.125V343.60595702a18.87890625 18.87890625 0 0 1 0-0.31552733V343.25c0-15.53291018 12.59208983-28.125 28.125-28.125l0.02636719 0.00087891c0.24345703-0.00175781 0.48691406 0.0140625 0.73037109 0.01845703 0.41484375 0.01142578 0.8279297 0.02988281 1.23837891 0.05888672 6.64013673 0.42011719 13.16074219 3.13769531 18.23554687 8.2125l64.29902344 64.29902343 233.07978516-233.09736328c10.98193359-10.9828125 28.78681641-10.9828125 39.76875 0 10.98193359 10.9828125 10.98193359 28.78945312 0 39.77226563L636.29931641 427.484375z" p-id="3035"></path></svg>
