<?xml version="1.0" standalone="no"?><!DOCTYPE svg PUBLIC "-//W3C//DTD SVG 1.1//EN" "http://www.w3.org/Graphics/SVG/1.1/DTD/svg11.dtd"><svg t="1718503003523" class="icon" viewBox="0 0 1024 1024" version="1.1" xmlns="http://www.w3.org/2000/svg" p-id="2495" xmlns:xlink="http://www.w3.org/1999/xlink" width="200" height="200"><path d="M744.55859375 124.40234344H279.44140625a116.27929688 116.27929688 0 0 0-116.27929688 116.27929688v542.63671936a116.27929688 116.27929688 0 0 0 116.27929688 116.27929688h465.1171875a116.27929688 116.27929688 0 0 0 116.27929688-116.27929688V240.68164032a116.27929688 116.27929688 0 0 0-116.27929688-116.27929688z m38.75976593 658.91601624a38.75976593 38.75976593 0 0 1-38.75976593 38.75976501H279.44140625a38.75976593 38.75976593 0 0 1-38.75976593-38.75976501v-38.75976593h542.63671936z m-542.63671936-116.27929687V240.68164032a38.75976593 38.75976593 0 0 1 38.75976593-38.75976501h465.1171875a38.75976593 38.75976593 0 0 1 38.75976593 38.75976501v426.35742249z" p-id="2496"></path><path d="M667.03906281 279.44140625H356.96093719a38.75976593 38.75976593 0 0 0 0 77.51953094h310.07812562a38.75976593 38.75976593 0 0 0 0-77.51953094zM512 434.48046906h-155.03906281a38.75976593 38.75976593 0 0 0 0 77.51953094h155.03906281a38.75976593 38.75976593 0 0 0 0-77.51953094z" p-id="2497"></path></svg>
