<?xml version="1.0" standalone="no"?><!DOCTYPE svg PUBLIC "-//W3C//DTD SVG 1.1//EN" "http://www.w3.org/Graphics/SVG/1.1/DTD/svg11.dtd">
<svg
	t="1719893344665"
	class="icon"
	viewBox="0 0 1024 1024"
	version="1.1"
	xmlns="http://www.w3.org/2000/svg"
	p-id="2698"
	xmlns:xlink="http://www.w3.org/1999/xlink"
	width="128"
	height="128"
>
	<path
		d="M512 876.99500275C310.40869754 876.99500275 147.00499725 713.59130246 147.00499725 512S310.40869754 147.00499725 512 147.00499725s364.99500275 163.40370029 364.99500275 364.99500275-163.40370029 364.99500275-364.99500275 364.99500275z m0-68.43656302c163.79150748 0 296.55843973-132.76693225 296.55843973-296.55843973S675.79150748 215.44156027 512 215.44156027 215.44156027 348.20849252 215.44156027 512s132.76693225 296.55843973 296.55843973 296.55843973z m-32.53017962-225.90909451l179.50910479-196.77793085a32.46174306 32.46174306 0 0 1 48.36183786 0.15968532c13.34512979 14.462927 13.27669321 37.86823154-0.13687313 52.23990975l-203.59877497 222.66976387a32.46174306 32.46174306 0 0 1-48.24777691 0L339.60829776 550.09635342a39.05446529 39.05446529 0 0 1-0.15968531-52.23990977 32.46174306 32.46174306 0 0 1 48.38465006-0.15968532l91.63655787 84.95258689z"
		p-id="2699"
	></path>
</svg>
