<?xml version="1.0" standalone="no"?><!DOCTYPE svg PUBLIC "-//W3C//DTD SVG 1.1//EN" "http://www.w3.org/Graphics/SVG/1.1/DTD/svg11.dtd">
<svg
	t="1717143922004"
	class="icon"
	viewBox="0 0 1024 1024"
	version="1.1"
	xmlns="http://www.w3.org/2000/svg"
	p-id="1790"
	xmlns:xlink="http://www.w3.org/1999/xlink"
	width="128"
	height="128"
>
	<path
		d="M461.05859402 163.50817898a103.82080079 103.82080079 0 0 1 101.88281196 0l230.48217774 129.77600097a103.82080079 103.82080079 0 0 1 52.8793948 90.46252389v256.50659232a103.82080079 103.82080079 0 0 1-52.8793948 90.46252389l-230.48217774 129.77600097a103.82080079 103.82080079 0 0 1-101.88281196 0l-230.48217774-129.77600097a103.82080079 103.82080079 0 0 1-52.8793948-90.46252389V383.74670384A103.82080079 103.82080079 0 0 1 230.57641628 293.28417995z m67.93341012 60.35449165a34.60693386 34.60693386 0 0 0-33.98400826 0L264.56042454 353.60406521a34.60693386 34.60693386 0 0 0-17.64953613 30.14263863v256.50659232a34.60693386 34.60693386 0 0 0 17.64953613 30.14263863l230.48217773 129.77600098a34.60693386 34.60693386 0 0 0 33.98400906 0l230.48217773-129.77600098a34.60693386 34.60693386 0 0 0 17.64953614-30.14263863V383.74670384a34.60693386 34.60693386 0 0 0-17.64953614-30.14263863zM512 373.57226536a138.42773464 138.42773464 0 1 1 0 276.85546928 138.42773464 138.42773464 0 0 1 0-276.85546928z m0 69.21386772a69.21386692 69.21386692 0 1 0 0 138.42773384 69.21386692 69.21386692 0 0 0 0-138.42773384z"
		p-id="1791"
	></path>
</svg>
