<?xml version="1.0" standalone="no"?><!DOCTYPE svg PUBLIC "-//W3C//DTD SVG 1.1//EN" "http://www.w3.org/Graphics/SVG/1.1/DTD/svg11.dtd">
<svg
	t="1718439017245"
	class="icon"
	viewBox="0 0 1024 1024"
	version="1.1"
	xmlns="http://www.w3.org/2000/svg"
	p-id="2457"
	xmlns:xlink="http://www.w3.org/1999/xlink"
	width="128"
	height="128"
>
	<path
		d="M415.33999999 352.33999999c48.96 0 88.2-56.16 88.20000002-125.63999998 0-69.48-39.42000001-125.64-88.2-125.64s-88.38000001 56.16-88.38000001 125.64c0 69.48 39.6 125.64 88.38000001 125.64zM625.58000001 360.61999999c65.34000001 8.46000001 107.28-61.2 115.55999998-113.93999999 8.46000001-52.74000001-33.48-113.94000001-79.92-124.38000001-46.26000001-10.62000001-104.04 63.54000001-109.25999999 111.78000001-6.30000001 59.04 8.46000001 118.08 73.61999999 126.54000001zM251.17999999 529.45999999c88.38000001-19.08 76.32-124.56 73.62000001-147.77999999-4.32-35.64-46.08-97.74000001-102.96-92.88-71.46000001 6.30000001-81.90000001 109.8-81.90000001 109.8-9.72 47.70000001 23.04 149.94000001 111.24000002 130.86000001zM785.42000001 348.01999999c-77.94000001 0-88.38000001 71.64-88.38000001 122.40000002 0 48.42000001 4.14000001 116.10000001 100.98000001 113.93999999 96.84-2.16 86.22000001-109.62000001 86.21999999-135 0-25.38000001-20.88-101.34000001-98.82000001-101.33999999zM345.13999999 713.24c-2.52 7.38000001-8.28 26.46000001-3.41999999 43.02000001 9.90000001 37.08 42.12 38.70000001 42.12 38.69999999h46.26000001v-113.22000001H380.6c-22.32 6.66000001-33.12 24.12-35.46000001 31.50000001z"
		p-id="2458"
	></path>
	<path
		d="M785.42000001 670.94000001s-100.98000001-78.12-159.84000002-162.54000001c-79.92-124.38000001-193.50000001-73.8-231.29999999-10.62000001-37.8 63.36-96.66000001 103.32-105.12 114.12000002-8.46000001 10.44-121.86000001 71.64-96.66000001 183.59999998 25.2 111.78000001 113.58000001 109.62000001 113.58000001 109.62000001s65.16 6.48 140.94000001-10.44c75.6-16.74000001 140.76 4.14000001 140.75999998 4.14000001s176.76 59.22000001 225.18000001-54.90000001c48.24-113.94000001-27.54000001-172.98000001-27.54000001-172.98000001z m-302.40000002 169.55999998h-114.83999998c-49.68-9.90000001-69.48-43.74000001-71.82000001-49.49999999-2.52-5.76-16.56-33.12-9.17999999-79.38000001 21.42000001-69.48 82.62000001-74.34000001 82.61999999-74.33999999h61.2v-75.24l52.02000001 0.90000001v277.55999998z m214.02000001-0.89999999h-132.30000001c-51.30000001-13.14000001-53.64-49.50000001-53.63999998-49.49999999v-146.34000001l53.64-0.90000001v131.40000002c3.24 14.04 20.70000001 16.56 20.69999999 16.56h54.54000001v-147.06000001h57.05999999V839.6z"
		p-id="2459"
	></path>
</svg>
