<?xml version="1.0" standalone="no"?><!DOCTYPE svg PUBLIC "-//W3C//DTD SVG 1.1//EN" "http://www.w3.org/Graphics/SVG/1.1/DTD/svg11.dtd"><svg t="1716880046346" class="icon" viewBox="0 0 1024 1024" version="1.1" xmlns="http://www.w3.org/2000/svg" p-id="1518" xmlns:xlink="http://www.w3.org/1999/xlink" width="128" height="128"><path d="M874.88 466.28571406c1.87428563 14.97142875 2.83428563 30.24 2.83428563 45.71428594 0 201.98857125-163.72571437 365.71428563-365.71428563 365.71428563-97.37142844 0-185.87428594-38.05714313-251.42857125-100.11428532V877.71428563H192.00000031l0.02285719-160.00000032L192.00000031 649.14285687h228.57142781v68.57142844h-122.97142781c54.07999969 56.36571469 130.14857156 91.42857188 214.39999969 91.42857188 164.11428563 0 297.14285719-133.02857156 297.14285719-297.14285719a299.42857125 299.42857125 0 0 0-3.49714313-45.71428594h69.25714313zM831.99999969 146.28571437l-0.02285719 160.00000032L831.99999969 374.85714313H603.42857188v-68.57142844h122.99428501A296.27428594 296.27428594 0 0 0 512 214.85714281C347.88571437 214.85714281 214.85714281 347.88571437 214.85714281 512c0 15.5428575 1.18857188 30.83428594 3.49714313 45.71428594h-69.25714313A369.32571469 369.32571469 0 0 1 146.28571437 512c0-201.98857125 163.72571437-365.71428563 365.71428563-365.71428563 97.37142844 0 185.89714313 38.08000031 251.42857125 100.1371425V146.28571437h68.57142844z" p-id="1519"></path></svg>