<?xml version="1.0" standalone="no"?><!DOCTYPE svg PUBLIC "-//W3C//DTD SVG 1.1//EN" "http://www.w3.org/Graphics/SVG/1.1/DTD/svg11.dtd"><svg t="1717229829126" class="icon" viewBox="0 0 1024 1024" version="1.1" xmlns="http://www.w3.org/2000/svg" p-id="2873" xmlns:xlink="http://www.w3.org/1999/xlink" width="128" height="128"><path d="M877.625 343.20957031V343.25c0 15.53291018-12.59208983 28.125-28.12500001 28.125l-0.02636718-0.00087891c-0.24345703 0.00175781-0.48691406-0.0140625-0.73037109-0.01845703a28.84042969 28.84042969 0 0 1-1.23837891-0.05888672c-6.64013673-0.42011719-13.16074219-3.13769531-18.23554687-8.2125l-64.29902344-64.29902343-233.07978516 233.09824218c-10.98193359 10.9828125-28.78681641 10.9828125-39.76875 0-10.98193359-10.9828125-10.98193359-28.78945312 0-39.77226562L725.19980469 259.015625l-64.28496094-64.28496094c-5.07392578-5.07392578-7.79150391-11.59453125-8.21162109-18.23378906-0.02900391-0.41220703-0.04833984-0.82617188-0.05976563-1.24277344-0.00439453-0.24257812-0.02021484-0.48427734-0.01845703-0.72773437l-0.0008789-0.0272461c0-15.53291018 12.59208983-28.125 28.12499999-28.125H849.50000001c15.53291018 0 28.125 12.59208983 28.12499999 28.125v168.71044922zM202.625 237.78124999v548.4375c0 19.41591797 15.74033203 35.15625001 35.15625001 35.15625001h548.4375c19.41591797 0 35.15625001-15.74033203 35.15624999-35.15625001V568.25h56.25v217.96875001c0 50.48261719-40.92363281 91.40625001-91.40624999 91.40624999H237.78124999c-50.48261719 0-91.40625001-40.92451172-91.40624999-91.40625001V237.78124999c0-50.48261719 40.92363281-91.40625001 91.40625001-91.40624999h217.96874999v56.25H237.78124999c-19.41591797 0-35.15625001 15.74033203-35.15624999 35.15625001z" p-id="2874"></path></svg>