<?xml version="1.0" standalone="no"?><!DOCTYPE svg PUBLIC "-//W3C//DTD SVG 1.1//EN" "http://www.w3.org/Graphics/SVG/1.1/DTD/svg11.dtd">
<svg
	t="1718694051417"
	class="icon"
	viewBox="0 0 1024 1024"
	version="1.1"
	xmlns="http://www.w3.org/2000/svg"
	p-id="2572"
	xmlns:xlink="http://www.w3.org/1999/xlink"
	width="128"
	height="128"
>
	<path
		d="M422 146c-30 48-12 114 42 144 48 30 114 12 144-36s12-114-36-144c-24-12-54-18-78-12-36 6-60 24-72 48z m480 510c-36-36-84-42-126-18-42 24-60 72-48 114 6 24 24 48 48 66 48 30 114 12 144-36 24-36 18-90-18-126z m-114-102c24-6 54-6 78 0V332l-180-84c-6 24-24 48-42 66l144 60v180zM98 758c6 24 24 48 48 66 24 12 54 18 78 12 24-6 48-24 66-48 18-30 18-72 0-102s-54-54-90-54-72 18-90 54c-18 18-24 42-12 72z m138-204V380l138-60c-18-18-30-42-42-66L152 338v222c36-12 60-12 84-6zM512 842l-138-60c-6 12-12 30-18 42-6 12-12 18-18 30l180 78 180-78c-18-18-30-42-42-66l-144 54z"
		p-id="2573"
	></path>
</svg>
