<?xml version="1.0" standalone="no"?><!DOCTYPE svg PUBLIC "-//W3C//DTD SVG 1.1//EN" "http://www.w3.org/Graphics/SVG/1.1/DTD/svg11.dtd"><svg t="1717171718535" class="icon" viewBox="0 0 1024 1024" version="1.1" xmlns="http://www.w3.org/2000/svg" p-id="1768" xmlns:xlink="http://www.w3.org/1999/xlink" width="200" height="200"><path d="M873.58203125 360.125c-19.86328125-46.84570313-48.1640625-88.9453125-84.375-125.06835938-36.12304688-36.12304688-78.22265625-64.51171875-125.06835938-84.37499999-48.515625-20.56640625-100.01953125-30.9375-153.19335937-30.9375s-104.67773438 10.37109375-153.19335938 30.9375c-46.84570313 19.86328125-88.9453125 48.1640625-125.06835937 84.375-36.12304688 36.12304688-64.51171875 78.22265625-84.375 125.06835937C127.7421875 408.640625 117.37109375 460.23242187 117.37109375 513.31835938s10.37109375 104.67773438 30.9375 153.19335937c19.86328125 46.84570313 48.1640625 88.9453125 84.375 125.06835938 36.12304688 36.12304688 78.22265625 64.51171875 125.06835938 84.37499999 48.515625 20.56640625 100.10742188 30.9375 153.19335937 30.9375 53.0859375 0 104.67773438-10.37109375 153.19335938-30.9375 46.84570313-19.86328125 88.9453125-48.1640625 125.06835937-84.375 36.12304688-36.12304688 64.51171875-78.22265625 84.375-125.06835937 20.56640625-48.515625 30.9375-100.10742188 30.9375-153.19335938 0-53.0859375-10.37109375-104.67773438-30.9375-153.19335937zM510.9453125 835.7890625c-177.80273438 0-322.47070313-144.66796875-322.47070313-322.47070313s144.66796875-322.47070313 322.47070313-322.47070312 322.47070313 144.66796875 322.47070313 322.47070313-144.58007813 322.47070313-322.47070313 322.47070312z" p-id="1769"></path><path d="M675.03710938 475.34960937H549.265625V293.328125c0-20.7421875-16.96289063-37.70507813-37.70507813-37.70507813-20.7421875 0-37.70507813 16.96289063-37.70507812 37.70507813v219.7265625c0 20.7421875 16.96289063 37.70507813 37.70507813 37.70507813h163.47656249c20.7421875 0 37.70507813-16.96289063 37.70507813-37.70507813-0.08789063-20.7421875-17.05078125-37.70507813-37.70507812-37.70507813z" p-id="1770"></path></svg>