<?xml version="1.0" standalone="no"?><!DOCTYPE svg PUBLIC "-//W3C//DTD SVG 1.1//EN" "http://www.w3.org/Graphics/SVG/1.1/DTD/svg11.dtd"><svg t="1718694273693" class="icon" viewBox="0 0 1024 1024" version="1.1" xmlns="http://www.w3.org/2000/svg" p-id="2572" xmlns:xlink="http://www.w3.org/1999/xlink" width="128" height="128"><path d="M894.76367188 725.3984375l-123.92578126-124.01367188c-12.12890625-12.74414063-32.25585938-13.18359375-45-0.96679687-6.41601563 6.15234375-9.93164063 14.67773438-9.75585937 23.5546875V712.390625H619.9296875c-22.23632813 0-43.2421875-8.70117188-58.97460938-24.43359375L424.4609375 551.375c-13.7109375-13.7109375-35.94726563-13.7109375-49.74609375 0-13.7109375 13.7109375-13.7109375 35.94726563 0 49.74609375l136.58203125 136.58203125c29.00390625 29.00390625 67.58789063 45 108.72070313 45h96.06445312v89.82421875c0.26367188 17.84179688 14.85351563 32.08007813 32.6953125 31.81640625 8.26171875-0.08789063 16.171875-3.42773438 22.06054688-9.22851563l124.01367187-124.01367187c12.48046875-12.65625 12.48046875-33.046875-0.08789063-45.703125zM493.98242187 425.42773437l101.16210938-105.29296874c6.328125-6.59179688 15.20507813-10.37109375 24.34570313-10.37109375H716.08203125v90c0.26367188 17.84179688 14.85351563 32.08007813 32.6953125 31.81640625 8.26171875-0.08789063 16.171875-3.42773438 22.06054688-9.22851563l124.01367187-124.01367187c12.56835938-12.56835938 12.56835938-33.046875 0-45.61523438L770.83789063 128.70898437c-12.12890625-12.74414063-32.25585938-13.18359375-45.00000001-0.96679687-6.41601563 6.15234375-9.93164063 14.67773438-9.75585937 23.5546875V239.5390625h-96.6796875c-28.21289063 0-55.546875 11.68945313-75.05859375 31.9921875l-101.07421875 105.20507813c-18.28125 19.07226563-44.03320313 29.97070313-70.40039063 29.97070312H156.13085937c-19.42382813 0-35.15625 15.73242188-35.15624999 35.15625s15.73242188 35.15625 35.15625 35.15625h216.65039062c45.52734375 0 89.6484375-18.80859375 121.20117188-51.59179688z" p-id="2573"></path></svg>