<?xml version="1.0" standalone="no"?><!DOCTYPE svg PUBLIC "-//W3C//DTD SVG 1.1//EN" "http://www.w3.org/Graphics/SVG/1.1/DTD/svg11.dtd"><svg t="1717407489204" class="icon" viewBox="0 0 1024 1024" version="1.1" xmlns="http://www.w3.org/2000/svg" p-id="1950" xmlns:xlink="http://www.w3.org/1999/xlink" width="200" height="200"><path d="M866.375 395.828a7.875 7.875 0 0 0 7.875-7.875v-59.031a7.875 7.875 0 0 0-7.875-7.875h-161.469V157.625a7.875 7.875 0 0 0-7.812-7.875h-63a7.875 7.875 0 0 0-7.938 7.875v163.422H401.75V157.625a7.875 7.875 0 0 0-7.875-7.875h-63A7.875 7.875 0 0 0 323 157.625v163.422H157.625a7.875 7.875 0 0 0-7.875 7.875v59.031c0 4.347 3.528 7.875 7.875 7.875H323v232.344H157.625a7.875 7.875 0 0 0-7.875 7.875v59.031c0 4.347 3.528 7.875 7.875 7.875H323v163.422c0 4.347 3.528 7.875 7.875 7.875h63a7.875 7.875 0 0 0 7.875-7.875v-163.422h224.469v163.422c0 4.347 3.528 7.875 7.812 7.875h63a7.875 7.875 0 0 0 7.938-7.875v-163.422h161.406a7.875 7.875 0 0 0 7.875-7.875V636.11a7.875 7.875 0 0 0-7.875-7.875h-161.469V395.828h161.469zM626.156 628.172H401.75V395.828h224.469v232.344z" fill="#2D3040" p-id="1951"></path></svg>