<?xml version="1.0" standalone="no"?><!DOCTYPE svg PUBLIC "-//W3C//DTD SVG 1.1//EN" "http://www.w3.org/Graphics/SVG/1.1/DTD/svg11.dtd">
<svg
	t="1718288476855"
	class="icon"
	viewBox="0 0 1024 1024"
	version="1.1"
	xmlns="http://www.w3.org/2000/svg"
	p-id="2186"
	xmlns:xlink="http://www.w3.org/1999/xlink"
	width="200"
	height="200"
>
	<path
		d="M399.786667 260.565333a7.424 7.424 0 0 0-12.629334-4.352l-40.533333 40.533334L222.634667 172.8a7.424 7.424 0 0 0-10.496 0l-39.296 39.210667a7.424 7.424 0 0 0 0 10.496l123.989333 123.989333-40.704 40.704a7.424 7.424 0 0 0 4.352 12.629333l148.565333 17.493334c4.736 0.597333 8.832-3.413333 8.277334-8.234667L399.786667 260.565333z m9.386666 346.112l-148.693333 17.536a7.424 7.424 0 0 0-4.352 12.629334l40.704 40.704-123.989333 123.818666a7.466667 7.466667 0 0 0 0 10.496l39.296 39.253334a7.424 7.424 0 0 0 10.496 0l123.989333-123.946667 40.533333 40.533333a7.424 7.424 0 0 0 12.629334-4.352l17.493333-148.48a7.338667 7.338667 0 0 0-8.106667-8.192z m205.653334-189.354666l148.693333-17.536a7.424 7.424 0 0 0 4.352-12.629334l-40.704-40.618666 124.032-123.904a7.466667 7.466667 0 0 0 0-10.496l-39.338667-39.253334a7.466667 7.466667 0 0 0-10.496 0l-123.989333 123.861334-40.533333-40.533334a7.424 7.424 0 0 0-12.629334 4.352l-17.493333 148.48a7.381333 7.381333 0 0 0 8.106667 8.277334z m112.341333 260.138666l40.704-40.704a7.424 7.424 0 0 0-4.352-12.629333l-148.565333-17.493333a7.424 7.424 0 0 0-8.277334 8.234666l17.536 148.565334a7.424 7.424 0 0 0 12.629334 4.352l40.533333-40.533334 123.989333 123.904a7.466667 7.466667 0 0 0 10.496 0l39.338667-39.210666a7.466667 7.466667 0 0 0 0-10.496l-124.032-123.989334z"
		p-id="2187"
	></path>
</svg>
