<?xml version="1.0" standalone="no"?><!DOCTYPE svg PUBLIC "-//W3C//DTD SVG 1.1//EN" "http://www.w3.org/Graphics/SVG/1.1/DTD/svg11.dtd"><svg t="1718340979343" class="icon" viewBox="0 0 1024 1024" version="1.1" xmlns="http://www.w3.org/2000/svg" p-id="2151" xmlns:xlink="http://www.w3.org/1999/xlink" width="128" height="128"><path d="M738.18103028 397.05554199L397.05554199 174.58239746C352.56091308 144.91931152 311.77416992 141.21142578 278.40319824 159.75085449 241.32434082 178.2902832 222.78491211 215.36914062 222.78491211 267.27954102v489.44091796c0 51.91040039 18.53942872 88.98925781 51.91040039 107.52868653 11.12365723 7.41577148 25.9552002 11.12365723 40.78674317 11.12365722 25.9552002 0 51.91040039-11.12365723 77.86560058-25.9552002l344.83337403-233.59680175c40.78674317-29.66308594 63.03405762-66.74194336 63.03405761-111.23657226s-22.24731445-81.57348633-63.03405762-107.52868653z m-33.37097169 163.14697266l-344.83337402 233.59680176c-22.24731445 14.83154297-40.78674317 18.53942872-55.61828613 14.83154297-11.12365723-7.41577148-18.53942872-25.9552002-18.53942871-51.9104004V267.27954102c0-25.9552002 7.41577148-48.20251465 18.53942871-51.9104004 3.70788575-3.70788575 7.41577148-3.70788575 14.83154297-3.70788574 11.12365723 0 25.9552002 3.70788575 44.4946289 14.83154298l341.12548828 222.47314452c22.24731445 14.83154297 37.07885742 37.07885742 37.07885743 55.61828614s-14.83154297 40.78674317-37.07885743 55.61828613z" p-id="2152"></path></svg>