<?xml version="1.0" standalone="no"?><!DOCTYPE svg PUBLIC "-//W3C//DTD SVG 1.1//EN" "http://www.w3.org/Graphics/SVG/1.1/DTD/svg11.dtd">
<svg
	t="1718694291456"
	class="icon"
	viewBox="0 0 1024 1024"
	version="1.1"
	xmlns="http://www.w3.org/2000/svg"
	p-id="2726"
	xmlns:xlink="http://www.w3.org/1999/xlink"
	width="128"
	height="128"
>
	<path
		d="M547.26857187 156.70857125l299.70285657 190.88000063A66.4228575 66.4228575 0 0 1 877.71428563 403.58857156v407.70285656A66.46857188 66.46857188 0 0 1 811.20000031 877.71428563h-265.1428575l0.02285719-204.48h-67.33714313v204.45714281L212.79999969 877.71428563A66.46857188 66.46857188 0 0 1 146.28571437 811.29142812V397.85142875c0-22.99428562 11.88571406-44.3428575 31.45142813-56.45714344l298.7428575-185.14285687a66.5371425 66.5371425 0 0 1 70.78857188 0.45714281zM809.14285719 809.14285719V404.38857125L511.52 214.85714281 214.85714281 398.67428562V809.14285719h198.10285688v-203.01714281h198.92571469v202.99428562L809.14285719 809.14285719z"
		p-id="2727"
	></path>
</svg>
