<?xml version="1.0" standalone="no"?><!DOCTYPE svg PUBLIC "-//W3C//DTD SVG 1.1//EN" "http://www.w3.org/Graphics/SVG/1.1/DTD/svg11.dtd"><svg t="1718875621508" class="icon" viewBox="0 0 1024 1024" version="1.1" xmlns="http://www.w3.org/2000/svg" p-id="2700" xmlns:xlink="http://www.w3.org/1999/xlink" width="128" height="128"><path d="M297.30133333 487.76533333a34.13333333 34.13333333 0 0 1-48.46933333 48.46933334l-136.53333333-136.53333334a34.13333333 34.13333333 0 0 1 0-48.46933333l136.53333333-136.53333333a34.13333333 34.13333333 0 1 1 48.46933333 48.46933333L184.66133333 375.46666667z" p-id="2701"></path><path d="M136.53333333 409.6a34.13333333 34.13333333 0 0 1 0-68.26666667h409.6a34.13333333 34.13333333 0 0 1 0 68.26666667z m590.16533334 126.63466667a34.13333333 34.13333333 0 0 1 48.46933333-48.46933334l136.53333333 136.53333334a34.13333333 34.13333333 0 0 1 0 48.46933333l-136.53333333 136.53333333a34.13333333 34.13333333 0 0 1-48.46933333-48.46933333L839.33866667 648.53333333z" p-id="2702"></path><path d="M887.46666667 614.4a34.13333333 34.13333333 0 0 1 0 68.26666667H477.86666667a34.13333333 34.13333333 0 0 1 0-68.26666667z" p-id="2703"></path></svg>