<?xml version="1.0" standalone="no"?><!DOCTYPE svg PUBLIC "-//W3C//DTD SVG 1.1//EN" "http://www.w3.org/Graphics/SVG/1.1/DTD/svg11.dtd">
<svg
	t="1716305996632"
	class="icon"
	viewBox="0 0 1058 1024"
	version="1.1"
	xmlns="http://www.w3.org/2000/svg"
	p-id="1038"
	xmlns:xlink="http://www.w3.org/1999/xlink"
	width="66.125"
	height="64"
>
	<path
		d="M318.22521799 162.47466667v77.67229667h-35.92343666a38.83614777 38.83614777 0 0 0-38.60313088 34.29231844L243.46563357 278.98311111v155.34459222c0 29.86499755-11.26248334 57.08913778-29.70965334 77.67229667 17.08790557 19.02971221 27.96202667 43.69066667 29.51547222 70.83713422l0.19418112 6.83516245v155.34459222a38.83614777 38.83614777 0 0 0 34.29231843 38.56429511l4.54382933 0.27185266h35.92343666v77.67229667h-35.92343666a116.50844445 116.50844445 0 0 1-116.31426332-109.67328199L165.79333689 745.01688889v-155.34459222a38.83614777 38.83614777 0 0 0-34.33115534-38.5642951L126.95718912 550.83614777H85.16949333v-77.67229554h41.74885888a38.83614777 38.83614777 0 0 0 38.56429512-34.29231957L165.79333689 434.32770333V278.98311111a116.50844445 116.50844445 0 0 1 109.63444622-116.31426332L282.30178133 162.47466667h35.92343666z m663.12723001 310.68918556v77.67229554H939.56475221a38.83614777 38.83614777 0 0 0-38.56429511 34.29231957l-0.27185265 4.54382933v155.34459222a116.50844445 116.50844445 0 0 1-109.63444623 116.31426332L784.22016 861.52533333h-35.92343666v-77.67229667h35.92343666a38.83614777 38.83614777 0 0 0 38.60313088-34.29231844L823.05630777 745.01688889v-155.34459222c0-29.82616178 11.26248334-57.08913778 29.67081756-77.67229667a116.04241067 116.04241067 0 0 1-29.43780067-70.83713422L823.05630777 434.32770333V278.98311111a38.83614777 38.83614777 0 0 0-34.29231844-38.56429511L784.25899577 240.14696334h-35.92343666V162.47466667h35.92343666a116.50844445 116.50844445 0 0 1 116.31426446 109.67328199l0.19417998 6.83516245v155.34459222a38.83614777 38.83614777 0 0 0 34.33115534 38.5642951l4.50499357 0.2718538h41.74885888z m-557.99777621-107.88681956l111.26556444 111.26556445 108.58587022-108.50819869 54.95314888 54.91431424-108.58587023 108.54703332 108.35285333 108.35285334-54.87547733 54.95315-108.35285333-108.35285333-111.18789177 111.11022023-54.9143131-54.91431424 111.11021909-111.149056-111.26556444-111.30440021 54.91431424-54.91431311z"
		p-id="1039"
	></path>
</svg>
