<?xml version="1.0" standalone="no"?><!DOCTYPE svg PUBLIC "-//W3C//DTD SVG 1.1//EN" "http://www.w3.org/Graphics/SVG/1.1/DTD/svg11.dtd"><svg t="1716884748523" class="icon" viewBox="0 0 1024 1024" version="1.1" xmlns="http://www.w3.org/2000/svg" p-id="1769" xmlns:xlink="http://www.w3.org/1999/xlink" width="128" height="128"><path d="M662.4644825 754.87166656C534.77019312 839.6754425 360.87694719 825.79709 248.30380906 713.23661187 119.89873062 584.84597281 119.89873062 376.68361813 248.30380906 248.29297906 376.7088875 119.90234 584.89465344 119.90234 713.29973188 248.29297906 825.8711675 360.85175281 839.7523625 534.72188281 754.9433225 662.40127813 756.76493656 663.88258063 758.53160937 665.47467688 760.23497375 667.17785L852.3628625 759.29537469C878.284475 785.21408 878.6585675 826.8625475 852.7985075 852.719705 827.117495 878.39783 785.683175 878.600645 759.36367437 852.2840975L667.23578937 760.16657656C665.53535188 758.46632938 663.94485125 756.69839375 662.4644825 754.87166656L662.4644825 754.87166656ZM666.80013969 666.74224906C769.52420187 564.02973781 769.52420187 397.49985313 666.80013969 294.78734188 564.07607656 192.07483063 397.52746437 192.07483063 294.80340125 294.78734188 192.07933812 397.49985313 192.07933812 564.02973781 294.80340125 666.74224906 397.52746437 769.45475937 564.07607656 769.45475937 666.80013969 666.74224906ZM332 452L332 512 632 512 632 452 332 452Z" fill="#666666" p-id="1770"></path></svg>