<?xml version="1.0" standalone="no"?><!DOCTYPE svg PUBLIC "-//W3C//DTD SVG 1.1//EN" "http://www.w3.org/Graphics/SVG/1.1/DTD/svg11.dtd">
<svg
	t="1718345666348"
	class="icon"
	viewBox="0 0 1024 1024"
	version="1.1"
	xmlns="http://www.w3.org/2000/svg"
	p-id="2211"
	xmlns:xlink="http://www.w3.org/1999/xlink"
	width="128"
	height="128"
>
	<path
		d="M3.43139366 512c0 280.86857143 227.70003492 508.56860634 508.56860634 508.56860634s508.56860634-227.70003492 508.56860634-508.56860634S792.86857143 3.43139366 512 3.43139366 3.43139366 231.13142857 3.43139366 512z m508.56860634-231.16754814a46.23351006 46.23351006 0 0 1 46.23351006 46.23350898v138.7005291h138.7005291a46.23351006 46.23351006 0 1 1 0 92.46702012h-138.7005291v138.7005291a46.23351006 46.23351006 0 1 1-92.46702012 0v-138.7005291H327.06596084a46.23351006 46.23351006 0 1 1 0-92.46702012h138.7005291V327.06596084a46.23351006 46.23351006 0 0 1 46.23351006-46.23350898z"
		p-id="2212"
	></path>
</svg>
