<?xml version="1.0" standalone="no"?><!DOCTYPE svg PUBLIC "-//W3C//DTD SVG 1.1//EN" "http://www.w3.org/Graphics/SVG/1.1/DTD/svg11.dtd">
<svg
	t="1717073489022"
	class="icon"
	viewBox="0 0 1024 1024"
	version="1.1"
	xmlns="http://www.w3.org/2000/svg"
	p-id="1759"
	xmlns:xlink="http://www.w3.org/1999/xlink"
	width="128"
	height="128"
>
	<path
		d="M597.17744141 310.61005859H245.90849609l105.47666016-105.54257812a33.28154297 33.28154297 0 0 0 8.60625-32.15039063 33.28681641 33.28681641 0 0 0-23.54238281-23.52304687 33.27802734 33.27802734 0 0 0-32.13984375 8.62207031L162.66904297 299.62636719c-12.38730469 12.35039062-19.24541016 28.96523437-19.31132813 46.61455078a65.57255859 65.57255859 0 0 0 19.31132813 47.11201172l141.64013672 141.67529297c6.22880859 6.26484375 14.70322266 9.79101563 23.53886718 9.79101562s17.30830078-3.52617188 23.53710938-9.79101562a33.24638672 33.24638672 0 0 0 9.76464844-23.54238282 33.24814453 33.24814453 0 0 0-9.76464844-23.53886718L240.31425781 377.140625h356.8631836c119.53476562 0 216.75585938 97.08837891 216.75585937 216.42099609s-97.22109375 216.421875-216.75585937 216.421875H364.77265625c-18.38671875 0-33.29736328 14.91064453-33.29736328 33.29736329s14.91064453 33.29824219 33.29736328 33.29824218h232.40566406c156.22646484 0 283.34707031-126.95888672 283.34707031-283.01748047s-127.11972656-283.01660156-283.34707031-283.01660156"
		p-id="1760"
	></path>
</svg>
