<?xml version="1.0" standalone="no"?><!DOCTYPE svg PUBLIC "-//W3C//DTD SVG 1.1//EN" "http://www.w3.org/Graphics/SVG/1.1/DTD/svg11.dtd"><svg t="1716884725295" class="icon" viewBox="0 0 1024 1024" version="1.1" xmlns="http://www.w3.org/2000/svg" p-id="3486" xmlns:xlink="http://www.w3.org/1999/xlink" width="128" height="128"><path d="M820.35714307 488.49285693l45.21428525 45.51428585-323.12142861 320.72142831-14.72142833-14.78571416 14.78571417 14.91428584H497.42857109v-45.49285722L820.35714307 488.49285693zM736.01428555 169.14285722a64.15714249 64.15714249 0 0 1 64.17857198 64.13571387l-0.02142862 192.45000059-64.15714336 64.13571387V233.27857109h-352.92857168v555.92142891h53.48571504l-64.15714336 64.13571387H265.46428583A64.15714249 64.15714249 0 0 1 201.28571386 789.22142862V233.27857109A64.15714249 64.15714249 0 0 1 265.46428583 169.14285722h470.57142832zM318.92857138 233.27857109H265.46428583v555.92142891h53.44285695V233.27857109z m288.77142833 192.42857198v64.15714248H436.57142891v-64.13571387h171.10714218z m64.17857197-128.27142862v64.13571387H436.57142891v-64.13571387h235.28571416z" p-id="3487"></path></svg>
