<?xml version="1.0" standalone="no"?><!DOCTYPE svg PUBLIC "-//W3C//DTD SVG 1.1//EN" "http://www.w3.org/Graphics/SVG/1.1/DTD/svg11.dtd"><svg t="1717657989150" class="icon" viewBox="0 0 1024 1024" version="1.1" xmlns="http://www.w3.org/2000/svg" p-id="3270" xmlns:xlink="http://www.w3.org/1999/xlink" width="128" height="128"><path d="M491.98730469 133.74511719A140.625 140.625 0 0 0 371.375 272.9375v18.75585938h281.25V272.9375A140.625 140.625 0 0 0 491.98730469 133.74511719z m337.2890625 126.24609375a28.12851562 28.12851562 0 0 0-27.33398438 6.64453125L721.72460938 343.25H302.27539062l-80.24414062-76.58789063a28.1109375 28.1109375 0 1 0-38.8125 40.67578126l75.65625 72.24609374v155.87402344H146.375a28.125 28.125 0 0 0 0 56.25h112.5V624.5c0 46.546875 12.57011719 90.17226563 34.47949219 127.63476563L183.21875 857.28710938a28.12939453 28.12939453 0 1 0 38.83886719 40.70214843L327.27148437 797.55664063a252.3375 252.3375 0 0 0 156.62988282 78.52148437V540.125a28.125 28.125 0 0 1 56.25 0v335.953125a252.61875 252.61875 0 0 0 156.62988281-78.52148438l105.21386719 100.43261719a28.153125 28.153125 0 0 0 38.83886718-40.70214843L730.671875 752.13476563A252.28125 252.28125 0 0 0 765.125 624.5v-32.81835938h112.5a28.125 28.125 0 0 0 0-56.25H765.125V379.55761719l75.65625-72.21972657a28.12851562 28.12851562 0 0 0-11.50488281-47.34667968z" p-id="3271"></path></svg>
