<?xml version="1.0" standalone="no"?><!DOCTYPE svg PUBLIC "-//W3C//DTD SVG 1.1//EN" "http://www.w3.org/Graphics/SVG/1.1/DTD/svg11.dtd"><svg t="1717229832692" class="icon" viewBox="0 0 1024 1024" version="1.1" xmlns="http://www.w3.org/2000/svg" p-id="3195" xmlns:xlink="http://www.w3.org/1999/xlink" width="128" height="128"><path d="M652.625 315.125c0-15.46875001-12.65625001-28.125-28.12500001-28.125H315.125c-15.46875001 0-28.125 12.65625001-28.125 28.125s12.65625001 28.125 28.125 28.125h309.37499999c15.46875001 0 28.125-12.65625001 28.12500001-28.125zM624.50000001 455.75H315.125c-15.46875001 0-28.125 12.65625001-28.125 28.125s12.65625001 28.125 28.125 28.125h309.37499999c15.46875001 0 28.125-12.65625001 28.12500001-28.125s-12.65625001-28.125-28.12499999-28.125zM861.16660156 624.48330079l-39.77490234-39.77490235c-21.87597655-21.87597655-57.67382813-21.87597655-79.54980469 0L585.48359375 741.94560547l-39.77490234 119.32470703s-10.98369141 28.79121094 0 39.77490234 39.77490234 0 39.77490234 0l119.32382813-39.77490234L861.16660156 704.03222657c21.87597655-21.87597655 21.87597655-57.67294922 0-79.54892578z" p-id="3196"></path><path d="M202.625 765.125V230.75c0-30.9375 25.3125-56.25 56.25-56.25000001h421.875c30.9375 0 56.25 25.3125 56.25 56.25000001v281.25h56.25V230.75c0-61.875-50.625-112.50000001-112.5-112.5H258.875c-61.875 0-112.50000001 50.625-112.5 112.5v534.375c0 61.875 50.625 112.50000001 112.5 112.5h225v-56.25H258.875c-30.9375 0-56.25-25.3125-56.25-56.25z" p-id="3197"></path><path d="M455.75 624.50000001H315.125c-15.46875001 0-28.125 12.65625001-28.125 28.12499999s12.65625001 28.125 28.125 28.125h140.625c15.46875001 0 28.125-12.65625001 28.125-28.125s-12.65625001-28.125-28.125-28.12500001z" p-id="3198"></path></svg>
