<?xml version="1.0" standalone="no"?><!DOCTYPE svg PUBLIC "-//W3C//DTD SVG 1.1//EN" "http://www.w3.org/Graphics/SVG/1.1/DTD/svg11.dtd">
<svg
	t="1718288474612"
	class="icon"
	viewBox="0 0 1024 1024"
	version="1.1"
	xmlns="http://www.w3.org/2000/svg"
	p-id="2040"
	xmlns:xlink="http://www.w3.org/1999/xlink"
	width="200"
	height="200"
>
	<path
		d="M358.058667 128H156.970667A28.970667 28.970667 0 0 0 128 157.013333v202.837334c0 7.978667 6.528 14.506667 14.506667 14.506666h43.434666a14.506667 14.506667 0 0 0 14.506667-14.506666V200.448h157.610667a14.506667 14.506667 0 0 0 14.506666-14.506667V142.506667a14.506667 14.506667 0 0 0-14.506666-14.506667zM881.493333 649.642667h-43.434666a14.506667 14.506667 0 0 0-14.506667 14.506666v159.402667h-157.610667a14.506667 14.506667 0 0 0-14.506666 14.506667v43.434666c0 7.978667 6.570667 14.506667 14.506666 14.506667h201.088c16 0 28.970667-12.928 28.970667-29.013333v-202.837334a14.506667 14.506667 0 0 0-14.506667-14.506666zM358.058667 823.552H200.448v-159.402667a14.506667 14.506667 0 0 0-14.506667-14.506666H142.506667a14.506667 14.506667 0 0 0-14.506667 14.506666v202.88c0 16 12.970667 28.970667 29.013333 28.970667h201.045334a14.506667 14.506667 0 0 0 14.506666-14.506667v-43.434666a14.506667 14.506667 0 0 0-14.506666-14.506667zM866.986667 128h-201.088a14.506667 14.506667 0 0 0-14.506667 14.506667v43.434666c0 7.978667 6.570667 14.506667 14.506667 14.506667h157.610666v159.402667c0 7.978667 6.528 14.506667 14.506667 14.506666h43.434667a14.506667 14.506667 0 0 0 14.506666-14.506666V156.970667A28.928 28.928 0 0 0 866.986667 128z"
		p-id="2041"
	></path>
</svg>
