<?xml version="1.0" standalone="no"?><!DOCTYPE svg PUBLIC "-//W3C//DTD SVG 1.1//EN" "http://www.w3.org/Graphics/SVG/1.1/DTD/svg11.dtd">
<svg
	t="1718696975936"
	class="icon"
	viewBox="0 0 1024 1024"
	version="1.1"
	xmlns="http://www.w3.org/2000/svg"
	p-id="3263"
	xmlns:xlink="http://www.w3.org/1999/xlink"
	width="128"
	height="128"
>
	<path
		d="M580.778667 896H213.333333a85.418667 85.418667 0 0 1-85.333333-85.333333V213.333333c0.042667-47.104 38.229333-85.290667 85.333333-85.333333h597.333334a85.418667 85.418667 0 0 1 85.333333 85.333333v368.725334a28.458667 28.458667 0 1 1-56.917333 0V213.333333c0-15.616-12.8-28.416-28.373334-28.416H213.333333A28.586667 28.586667 0 0 0 184.874667 213.333333v597.333334c0 15.658667 12.8 28.458667 28.416 28.458666h367.445333a28.416 28.416 0 1 1 0 56.874667z"
		p-id="3264"
	></path>
	<path
		d="M676.821333 354.858667H284.16A28.117333 28.117333 0 1 1 284.16 298.666667h392.704a28.117333 28.117333 0 1 1 0 56.192h-0.042667zM409.642667 537.6H284.16a28.16 28.16 0 1 1 0-56.234667H409.6a28.16 28.16 0 1 1 0 56.234667z m0 182.570667H284.16a28.16 28.16 0 1 1 0-56.234667H409.6a28.16 28.16 0 1 1 0.085333 56.234667H409.6zM616.789333 768a151.381333 151.381333 0 0 1-151.253333-151.168 151.381333 151.381333 0 0 1 151.253333-151.04A151.381333 151.381333 0 0 1 768 616.874667 151.338667 151.338667 0 0 1 616.746667 768z m0-246.016a94.976 94.976 0 0 0 0 189.781333 94.976 94.976 0 0 0 0-189.781333z"
		p-id="3265"
	></path>
	<path
		d="M800.341333 845.226667l-109.226666-109.269334a31.744 31.744 0 0 1 44.8-44.885333l109.226666 109.226667a31.744 31.744 0 0 1-44.8 44.885333z"
		p-id="3266"
	></path>
</svg>
