<?xml version="1.0" standalone="no"?><!DOCTYPE svg PUBLIC "-//W3C//DTD SVG 1.1//EN" "http://www.w3.org/Graphics/SVG/1.1/DTD/svg11.dtd"><svg t="1718340748016" class="icon" viewBox="0 0 1024 1024" version="1.1" xmlns="http://www.w3.org/2000/svg" p-id="2151" xmlns:xlink="http://www.w3.org/1999/xlink" width="128" height="128"><path d="M735.33007813 836.22851563L536.16992188 738.58203125c-14.85351563-7.29492188-21.09375001-25.22460938-13.79882813-40.16601563 3.515625-7.11914063 9.66796875-12.56835938 17.13867188-15.20507812 7.55859375-2.54882813 15.73242188-2.109375 22.93945312 1.40625l163.30078125 80.15625 70.48828125-482.60742188-317.4609375 380.91796876v177.01171875c0 16.5234375-13.44726563 29.97070313-29.97070313 29.97070312S418.8359375 856.61914063 418.8359375 840.09570313V653.24023438c0-1.58203125 0.08789063-3.07617188 0.3515625-4.65820313 0.703125-5.80078125 3.07617188-11.33789063 6.76757813-15.8203125L725.046875 273.81640625 245.515625 522.63476563l113.02734375 58.62304687c14.85351563 7.82226563 20.7421875 25.92773438 13.44726563 40.95703125-3.33984375 6.94335938-9.40429689 12.21679689-16.69921876 14.765625-7.29492188 2.54882813-15.29296875 2.02148438-22.23632812-1.31835938l-163.4765625-85.078125c-6.24023438-3.25195313-11.16210938-8.52539063-13.97460938-14.94140625-3.69140625-6.94335938-4.48242188-15.1171875-2.19726563-22.58789062 2.28515625-7.55859375 7.47070313-13.88671875 14.50195314-17.578125l658.828125-341.80664063c4.39453125-2.28515625 9.31640625-3.42773438 14.23828125-3.42773437 14.67773438-0.26367188 27.33398438 10.10742188 29.97070312 24.52148438 0.96679687 4.83398438 0.79101563 9.75585938-0.52734375 14.50195312L779.27539063 813.37695313c-1.93359375 13.53515625-12.56835938 23.5546875-25.40039063 25.48828124-6.328125 1.14257813-12.83203125 0.26367188-18.54492188-2.63671875z m-1e-8-1e-8" p-id="2152"></path></svg>
